<svg xmlns="http://www.w3.org/2000/svg" width="450" height="207" viewBox="0 0 450 207">
    <style>
      @keyframes fadeIn { from { opacity: 0; transform: translateY(8px); } to { opacity: 1; transform: translateY(0); } }
      @keyframes barGrow { from { transform: scaleX(0); } to { transform: scaleX(1); } }
      text { font-family: 'Segoe UI', Ubuntu, 'Helvetica Neue', sans-serif; }
    </style>
    
    <defs>
      <linearGradient id="accentGrad" x1="0%" y1="0%" x2="100%" y2="100%">
        <stop offset="0%" stop-color="#7C3AED"/>
        <stop offset="100%" stop-color="#22D3EE"/>
      </linearGradient>
      <linearGradient id="bgGrad" x1="0%" y1="0%" x2="100%" y2="100%">
        <stop offset="0%" stop-color="#0D1117"/>
        <stop offset="100%" stop-color="#161B22"/>
      </linearGradient>
      <filter id="glow">
        <feGaussianBlur stdDeviation="3" result="blur"/>
        <feMerge><feMergeNode in="blur"/><feMergeNode in="SourceGraphic"/></feMerge>
      </filter>
    </defs>
    
    <rect width="450" height="207" rx="12" fill="url(#bgGrad)" stroke="rgba(139,92,246,0.3)" stroke-width="1"/>
    <rect width="450" height="207" rx="12" fill="none" stroke="url(#accentGrad)" stroke-width="0.5" opacity="0.4"/>

    <g opacity="0" style="animation: fadeIn 0.6s ease 0s forwards">
      <text x="30" y="38" font-size="18" font-weight="700" fill="#FFFFFF">Most Used Languages</text>
      <rect x="30" y="48" width="60" height="3" rx="1.5" fill="url(#accentGrad)"/>
    </g>

    <!-- Progress Bar -->
    <g opacity="0" style="animation: fadeIn 0.6s ease 0.15s forwards">
      <rect x="30" y="55" width="390" height="8" rx="4" fill="#0D1117"/>
      <clipPath id="barClip"><rect x="30" y="55" width="390" height="8" rx="4"/></clipPath>
      <g clip-path="url(#barClip)" style="transform-origin: 30px center; animation: barGrow 1s ease 0.3s both">
        <rect x="30" y="55" width="207.87" height="8" rx="4" fill="#4F5D95"/><rect x="237.87" y="55" width="103.35" height="8" rx="4" fill="#f1e05a"/><rect x="341.22" y="55" width="46.02" height="8" rx="4" fill="#663399"/><rect x="387.24" y="55" width="18.33" height="8" rx="4" fill="#f7523f"/><rect x="405.57" y="55" width="7.41" height="8" rx="4" fill="#41b883"/><rect x="412.98" y="55" width="2.73" height="8" rx="4" fill="#3178c6"/><rect x="415.71000000000004" y="55" width="2.34" height="8" rx="4" fill="#dea584"/><rect x="418.05" y="55" width="2" height="8" rx="4" fill="#c6538c"/>
      </g>
    </g>

    <!-- Legend -->
    
        <g opacity="0" style="animation: fadeIn 0.6s ease 0.2s forwards">
          <circle cx="36" cy="81" r="5" fill="#4F5D95"/>
          <text x="48" y="85" font-size="12" fill="#C9D1D9">PHP</text>
          <text x="200" y="85" font-size="12" fill="#8B949E" text-anchor="end">53.3%</text>
        </g>
        <g opacity="0" style="animation: fadeIn 0.6s ease 0.28s forwards">
          <circle cx="236" cy="81" r="5" fill="#f1e05a"/>
          <text x="248" y="85" font-size="12" fill="#C9D1D9">JavaScript</text>
          <text x="400" y="85" font-size="12" fill="#8B949E" text-anchor="end">26.5%</text>
        </g>
        <g opacity="0" style="animation: fadeIn 0.6s ease 0.36s forwards">
          <circle cx="36" cy="109" r="5" fill="#663399"/>
          <text x="48" y="113" font-size="12" fill="#C9D1D9">CSS</text>
          <text x="200" y="113" font-size="12" fill="#8B949E" text-anchor="end">11.8%</text>
        </g>
        <g opacity="0" style="animation: fadeIn 0.6s ease 0.44s forwards">
          <circle cx="236" cy="109" r="5" fill="#f7523f"/>
          <text x="248" y="113" font-size="12" fill="#C9D1D9">Blade</text>
          <text x="400" y="113" font-size="12" fill="#8B949E" text-anchor="end">4.7%</text>
        </g>
        <g opacity="0" style="animation: fadeIn 0.6s ease 0.52s forwards">
          <circle cx="36" cy="137" r="5" fill="#41b883"/>
          <text x="48" y="141" font-size="12" fill="#C9D1D9">Vue</text>
          <text x="200" y="141" font-size="12" fill="#8B949E" text-anchor="end">1.9%</text>
        </g>
        <g opacity="0" style="animation: fadeIn 0.6s ease 0.6000000000000001s forwards">
          <circle cx="236" cy="137" r="5" fill="#3178c6"/>
          <text x="248" y="141" font-size="12" fill="#C9D1D9">TypeScript</text>
          <text x="400" y="141" font-size="12" fill="#8B949E" text-anchor="end">0.7%</text>
        </g>
        <g opacity="0" style="animation: fadeIn 0.6s ease 0.6799999999999999s forwards">
          <circle cx="36" cy="165" r="5" fill="#dea584"/>
          <text x="48" y="169" font-size="12" fill="#C9D1D9">Rust</text>
          <text x="200" y="169" font-size="12" fill="#8B949E" text-anchor="end">0.6%</text>
        </g>
        <g opacity="0" style="animation: fadeIn 0.6s ease 0.76s forwards">
          <circle cx="236" cy="165" r="5" fill="#c6538c"/>
          <text x="248" y="169" font-size="12" fill="#C9D1D9">SCSS</text>
          <text x="400" y="169" font-size="12" fill="#8B949E" text-anchor="end">0.5%</text>
        </g>
    </svg>